<svg width="18" height="18" viewBox="0 0 18 18" fill="none" xmlns="http://www.w3.org/2000/svg">
<path d="M9.01699 0.666992C13.7503 0.666992 17.3337 4.54781 17.3337 8.98781C17.3337 14.1372 13.1337 17.3337 9.00033 17.3337C7.63366 17.3337 6.11699 16.9664 4.90033 16.2487C4.47533 15.99 4.11699 15.798 3.65866 15.9482L1.97533 16.449C1.55033 16.5825 1.16699 16.2487 1.29199 15.798L1.85033 13.9286C1.94199 13.6698 1.92533 13.3944 1.79199 13.1774C1.07533 11.8588 0.666992 10.4149 0.666992 9.01284C0.666992 4.62293 4.17533 0.666992 9.01699 0.666992ZM12.8253 7.95292C12.2337 7.95292 11.7587 8.42864 11.7587 9.02119C11.7587 9.6054 12.2337 10.0895 12.8253 10.0895C13.417 10.0895 13.892 9.6054 13.892 9.02119C13.892 8.42864 13.417 7.95292 12.8253 7.95292ZM8.98366 7.95292C8.40033 7.94458 7.91699 8.42863 7.91699 9.01284C7.91699 9.6054 8.39199 10.0811 8.98366 10.0895C9.57533 10.0895 10.0503 9.6054 10.0503 9.02119C10.0503 8.42864 9.57533 7.95292 8.98366 7.95292ZM5.14199 7.95292C4.55033 7.95292 4.07533 8.42864 4.07533 9.02119C4.07533 9.6054 4.55866 10.0895 5.14199 10.0895C5.73366 10.0811 6.20866 9.6054 6.20866 9.02119C6.20866 8.42864 5.73366 7.95292 5.14199 7.95292Z" fill="#3E7BFA"/>
</svg>
