<svg width="18" height="16" viewBox="0 0 18 16" fill="none" xmlns="http://www.w3.org/2000/svg">
<path d="M5.89936 0.0841133C6.42436 0.10008 6.9327 0.191746 7.4252 0.359246H7.47436C7.5077 0.37508 7.5327 0.39258 7.54936 0.408413C7.73353 0.46758 7.9077 0.534246 8.07436 0.625913L8.39103 0.76758C8.51603 0.834246 8.66603 0.958413 8.74936 1.00925C8.8327 1.05841 8.92436 1.10925 8.99936 1.16675C9.9252 0.459246 11.0494 0.075913 12.2077 0.0841133C12.7335 0.0841133 13.2585 0.158413 13.7577 0.325913C16.8335 1.32591 17.9419 4.70091 17.016 7.65091C16.491 9.15841 15.6327 10.5342 14.5085 11.6584C12.8994 13.2167 11.1335 14.6001 9.2327 15.7917L9.02436 15.9176L8.8077 15.7834C6.9002 14.6001 5.12436 13.2167 3.5002 11.6501C2.38353 10.5259 1.52436 9.15841 0.991029 7.65091C0.0493627 4.70091 1.1577 1.32591 4.26686 0.308413C4.50853 0.22508 4.7577 0.166746 5.0077 0.134246H5.1077C5.34186 0.10008 5.57436 0.0841133 5.8077 0.0841133H5.89936Z" fill="#3E7BFA"/>
</svg>
