<svg width="18" height="17" viewBox="0 0 18 17" fill="none" xmlns="http://www.w3.org/2000/svg">
<path fill-rule="evenodd" clip-rule="evenodd" d="M9.19515 1.36593C10.5501 0.509265 12.3501 0.272598 13.9051 0.770932C17.2876 1.86177 18.3376 5.54926 17.3985 8.48343C15.9493 13.0918 9.76015 16.5293 9.49765 16.6734C9.40431 16.7251 9.30098 16.7509 9.19765 16.7509C9.09431 16.7509 8.99181 16.7259 8.89848 16.6751C8.63765 16.5326 2.49348 13.1459 0.99598 8.48427L0.995146 8.48343C0.0551461 5.54843 1.10181 1.8601 4.48098 0.770932C6.06765 0.257598 7.79681 0.483432 9.19515 1.36593ZM4.86431 1.96093C2.13015 2.8426 1.44348 5.78343 2.18598 8.1026C3.35431 11.7376 7.97015 14.6768 9.19681 15.4043C10.4276 14.6693 15.0768 11.6976 16.2076 8.10593C16.9501 5.78427 16.261 2.84343 13.5226 1.96093C12.196 1.5351 10.6485 1.79427 9.58015 2.62093C9.35681 2.7926 9.04681 2.79593 8.82181 2.62593C7.69015 1.7751 6.21181 1.52593 4.86431 1.96093Z" fill="#28293D"/>
</svg>
