<svg width="15" height="23" viewBox="0 0 15 23" fill="none" xmlns="http://www.w3.org/2000/svg">
<path fill-rule="evenodd" clip-rule="evenodd" d="M7.5 1.43741C5.97501 1.43741 4.51247 2.04322 3.43414 3.12155C2.3558 4.19988 1.75 5.66242 1.75 7.18741C1.75 8.71241 2.3558 10.1749 3.43414 11.2533C4.51247 12.3316 5.97501 12.9374 7.5 12.9374C9.02499 12.9374 10.4875 12.3316 11.5659 11.2533C12.6442 10.1749 13.25 8.71241 13.25 7.18741C13.25 5.66242 12.6442 4.19988 11.5659 3.12155C10.4875 2.04322 9.02499 1.43741 7.5 1.43741ZM0.3125 7.18741C0.312517 5.79651 0.716109 4.43549 1.47433 3.26942C2.23254 2.10334 3.31281 1.18232 4.58412 0.618046C5.85542 0.0537721 7.26314 -0.129508 8.63655 0.0904329C10.01 0.310374 11.29 0.924088 12.3216 1.85714C13.3531 2.7902 14.0917 4.0025 14.4479 5.34704C14.804 6.69157 14.7624 8.11056 14.3281 9.43191C13.8938 10.7533 13.0854 11.9202 12.0009 12.7912C10.9165 13.6622 9.60268 14.1999 8.21875 14.339V17.2499H11.0938C11.2844 17.2499 11.4672 17.3256 11.602 17.4604C11.7368 17.5952 11.8125 17.778 11.8125 17.9687C11.8125 18.1593 11.7368 18.3421 11.602 18.4769C11.4672 18.6117 11.2844 18.6874 11.0938 18.6874H8.21875V22.2812C8.21875 22.4718 8.14303 22.6546 8.00823 22.7894C7.87344 22.9242 7.69062 22.9999 7.5 22.9999C7.30938 22.9999 7.12656 22.9242 6.99177 22.7894C6.85698 22.6546 6.78125 22.4718 6.78125 22.2812V18.6874H3.90625C3.71563 18.6874 3.53281 18.6117 3.39802 18.4769C3.26323 18.3421 3.1875 18.1593 3.1875 17.9687C3.1875 17.778 3.26323 17.5952 3.39802 17.4604C3.53281 17.3256 3.71563 17.2499 3.90625 17.2499H6.78125V14.339C5.00836 14.1608 3.36485 13.3304 2.16958 12.009C0.974302 10.6875 0.312478 8.96924 0.3125 7.18741Z" fill="white"/>
</svg>
