<svg width="19" height="17" viewBox="0 0 19 17" fill="none" xmlns="http://www.w3.org/2000/svg">
<path fill-rule="evenodd" clip-rule="evenodd" d="M13.8822 0.666992C16.6572 0.666992 18.7497 2.93116 18.7497 5.93366V11.657C18.7497 13.1937 18.2063 14.582 17.2188 15.567C16.333 16.4495 15.1838 16.917 13.8955 16.917H5.68467C4.39884 16.917 3.25051 16.4503 2.36384 15.567C1.37634 14.582 0.833008 13.1937 0.833008 11.657V5.93366C0.833008 2.93116 2.92551 0.666992 5.70051 0.666992H13.8822ZM13.8822 1.91699H5.70051C3.60467 1.91699 2.08301 3.60616 2.08301 5.93366V11.657C2.08301 12.8595 2.49634 13.9337 3.24634 14.6812C3.89301 15.327 4.73717 15.667 5.68717 15.667H13.8822C13.8838 15.6653 13.8905 15.667 13.8955 15.667C14.8463 15.667 15.6897 15.327 16.3363 14.6812C17.0872 13.9337 17.4997 12.8595 17.4997 11.657V5.93366C17.4997 3.60616 15.978 1.91699 13.8822 1.91699ZM15.1955 5.77433C15.413 6.04183 15.3722 6.43516 15.1047 6.65349L11.4013 9.66349C10.933 10.0352 10.373 10.221 9.81384 10.221C9.25634 10.221 8.70051 10.0368 8.23551 9.66849L4.49801 6.65516C4.22884 6.43849 4.18717 6.04433 4.40301 5.77599C4.62051 5.50849 5.01384 5.46599 5.28217 5.68183L9.01634 8.69182C9.48551 9.06349 10.1463 9.06349 10.6188 8.68849L14.3155 5.68349C14.5838 5.46433 14.9772 5.50599 15.1955 5.77433Z" fill="#28293D"/>
</svg>
