<svg width="21" height="21" viewBox="0 0 21 21" fill="none" xmlns="http://www.w3.org/2000/svg">
<path fill-rule="evenodd" clip-rule="evenodd" d="M12.6567 1.875C12.4661 1.875 12.2833 1.79927 12.1485 1.66448C12.0137 1.52969 11.938 1.34687 11.938 1.15625C11.938 0.965626 12.0137 0.782809 12.1485 0.648017C12.2833 0.513225 12.4661 0.4375 12.6567 0.4375H19.8442C20.0348 0.4375 20.2176 0.513225 20.3524 0.648017C20.4872 0.782809 20.563 0.965626 20.563 1.15625V8.34375C20.563 8.53437 20.4872 8.71719 20.3524 8.85198C20.2176 8.98677 20.0348 9.0625 19.8442 9.0625C19.6536 9.0625 19.4708 8.98677 19.336 8.85198C19.2012 8.71719 19.1255 8.53437 19.1255 8.34375V2.89131L13.19 8.82675C14.357 10.2545 14.9306 12.0761 14.7922 13.9148C14.6539 15.7536 13.8141 17.4688 12.4466 18.7058C11.0791 19.9428 9.28844 20.6069 7.44506 20.5607C5.60168 20.5145 3.84655 19.7617 2.54267 18.4578C1.2388 17.1539 0.48592 15.3988 0.439755 13.5554C0.393591 11.712 1.05767 9.9214 2.29465 8.55389C3.53162 7.18639 5.24687 6.3466 7.08563 6.20822C8.92439 6.06984 10.746 6.64346 12.1737 7.81044L18.1091 1.875H12.6567ZM7.62546 7.625C6.10046 7.625 4.63793 8.2308 3.55959 9.30914C2.48126 10.3875 1.87546 11.85 1.87546 13.375C1.87546 14.9 2.48126 16.3625 3.55959 17.4409C4.63793 18.5192 6.10046 19.125 7.62546 19.125C9.15045 19.125 10.613 18.5192 11.6913 17.4409C12.7697 16.3625 13.3755 14.9 13.3755 13.375C13.3755 11.85 12.7697 10.3875 11.6913 9.30914C10.613 8.2308 9.15045 7.625 7.62546 7.625Z" fill="#3E7BFA"/>
</svg>
