<svg width="18" height="18" viewBox="0 0 18 18" fill="none" xmlns="http://www.w3.org/2000/svg">
<path d="M13.6842 13.7122C14.0064 13.3923 14.5227 13.3923 14.8448 13.7122L16.9737 15.4307H17.0106C17.4413 15.866 17.4413 16.5718 17.0106 17.0072C16.5799 17.4425 15.8816 17.4425 15.4509 17.0072L13.6842 14.9824L13.6172 14.9067C13.4923 14.7487 13.4234 14.5516 13.4234 14.3473C13.4234 14.109 13.5172 13.8805 13.6842 13.7122ZM7.81503 0.666992C9.7108 0.666992 11.5289 1.42819 12.8694 2.78313C14.21 4.13807 14.9631 5.97576 14.9631 7.89193C14.9631 11.8822 11.7628 15.1169 7.81503 15.1169C3.86728 15.1169 0.666992 11.8822 0.666992 7.89193C0.666992 3.90171 3.86728 0.666992 7.81503 0.666992Z" fill="#3E7BFA"/>
</svg>
