<svg width="18" height="18" viewBox="0 0 18 18" fill="none" xmlns="http://www.w3.org/2000/svg">
<path fill-rule="evenodd" clip-rule="evenodd" d="M8.78185 0.666992C13.2568 0.666992 16.8969 4.30699 16.8969 8.78199C16.8969 10.8933 16.0866 12.8189 14.7607 14.2641L17.3697 16.8676C17.6139 17.1117 17.6147 17.5067 17.3705 17.7509C17.2488 17.8742 17.088 17.9351 16.928 17.9351C16.7689 17.9351 16.6088 17.8742 16.4863 17.7526L13.8459 15.1195C12.4569 16.2319 10.6957 16.8978 8.78185 16.8978C4.30685 16.8978 0.666016 13.257 0.666016 8.78199C0.666016 4.30699 4.30685 0.666992 8.78185 0.666992ZM8.78185 1.91699C4.99602 1.91699 1.91602 4.99616 1.91602 8.78199C1.91602 12.5678 4.99602 15.6478 8.78185 15.6478C12.5668 15.6478 15.6469 12.5678 15.6469 8.78199C15.6469 4.99616 12.5668 1.91699 8.78185 1.91699Z" fill="#28293D"/>
</svg>
