<svg width="20" height="20" viewBox="0 0 20 20" fill="none" xmlns="http://www.w3.org/2000/svg">
<path fill-rule="evenodd" clip-rule="evenodd" d="M14.5659 5.13911C14.8099 5.38319 14.8099 5.77892 14.5659 6.023L6.02166 14.5672C5.77759 14.8113 5.38186 14.8113 5.13778 14.5672C4.8937 14.3231 4.8937 13.9274 5.13778 13.6833L13.682 5.13911C13.9261 4.89504 14.3218 4.89504 14.5659 5.13911Z" fill="#28293D"/>
<path fill-rule="evenodd" clip-rule="evenodd" d="M14.8619 14.5668C14.6178 14.8109 14.2221 14.8109 13.978 14.5668L5.43378 6.02264C5.1897 5.77856 5.1897 5.38283 5.43378 5.13876C5.67785 4.89468 6.07358 4.89468 6.31766 5.13876L14.8619 13.683C15.1059 13.927 15.1059 14.3228 14.8619 14.5668Z" fill="#28293D"/>
</svg>
